<svg xmlns="http://www.w3.org/2000/svg" width="105.547" height="101.922" viewBox="0 0 105.547 101.922">
  <path id="Filter-Icon-SVG-049kfgd" d="M85.126,97.828V48.5h-3A10.394,10.394,0,0,1,71.693,38.04,10.511,10.511,0,0,1,82.129,27.575h3V3a2.995,2.995,0,1,1,5.99,0V27.575H94.11A10.511,10.511,0,0,1,104.547,38.04,10.394,10.394,0,0,1,94.11,48.5H91.115V97.828a3,3,0,1,1-5.99,0ZM77.682,38.04a4.539,4.539,0,0,0,4.447,4.55H94.11a4.5,4.5,0,0,0,0-9.009H82.129A4.52,4.52,0,0,0,77.682,38.04ZM49.275,97.828V84.451H46.28a10.42,10.42,0,1,1,0-20.841h2.995V3.094A2.989,2.989,0,0,1,52.27,0a3.046,3.046,0,0,1,2.995,3.094V63.61h2.9a10.421,10.421,0,1,1,0,20.841h-2.9V97.828a3.106,3.106,0,0,1-2.995,3.094A3.045,3.045,0,0,1,49.275,97.828ZM41.743,74.077a4.6,4.6,0,0,0,4.538,4.459H58.169a4.5,4.5,0,1,0,0-9.009H46.28A4.557,4.557,0,0,0,41.743,74.077ZM13.431,97.828V30.578H10.436a10.465,10.465,0,0,1,0-20.93h2.995V3.094a3,3,0,1,1,5.99,0V9.648h2.995a10.465,10.465,0,0,1,0,20.93H19.421v67.25a3.106,3.106,0,0,1-2.995,3.094A3.106,3.106,0,0,1,13.431,97.828ZM5.99,20.113a4.539,4.539,0,0,0,4.447,4.55H22.415a4.539,4.539,0,0,0,4.447-4.55,4.46,4.46,0,0,0-4.447-4.459H10.436A4.46,4.46,0,0,0,5.99,20.113Z" transform="translate(0.5 0.5)" stroke="#ffffff" stroke-miterlimit="10" stroke-width="1" fill="#ffffff"/>
</svg>